# xmcd CD database file
#
# Track frame offsets:
#	150
#	14903
#	31542
#	48854
#	62431
#	82222
#	94584
#	116928
#	130425
#	149203
#	165988
#	181273
#	201481
#	215875
#	230554
#	249746
#	271874
#	292653
#	311096
#
# Disc length: 4543 seconds
#
# Revision: 2
# Processed by: cddbd v1.5.1PL0 Copyright (c) Steve Scherf et al.
# Submitted via: Feurio! 1.67 - http://www.feurio.com
#
DISCID=2111bd13
DTITLE=Ilmârs Dzenis - Lai dzîvo treðâ jaunîba!
DYEAR=1900
DGENRE=
TTITLE0=Lai dzîvo treðâ jaunîba!
TTITLE1=Zilâs acis
TTITLE2=Cik dzîvç viss skaists!
TTITLE3=Lejâ pie upîtes
TTITLE4=Sirdssâpes
TTITLE5=Odi
TTITLE6=Vientuïais ozols
TTITLE7=Zûdi krûmos, aligâtor!
TTITLE8=Liec, lai attâlums zûd!
TTITLE9=Maijs
TTITLE10=Vannâ sçþot
TTITLE11=Ziedonis
TTITLE12=Gulbenes-Alûksnes bânîtis
TTITLE13=Neatstâj mani!
TTITLE14=Atgriezies!
TTITLE15=Kâdçï?
TTITLE16=Vot, ka cemme Zilupç!
TTITLE17=No manis neaizej!
TTITLE18=Karîbu dziesmu virkne
EXTD=
EXTT0=
EXTT1=
EXTT2=
EXTT3=
EXTT4=
EXTT5=
EXTT6=
EXTT7=
EXTT8=
EXTT9=
EXTT10=
EXTT11=
EXTT12=
EXTT13=
EXTT14=
EXTT15=
EXTT16=
EXTT17=
EXTT18=
PLAYORDER=
